<?xml version="1.0" encoding="UTF-8" standalone="no"?>
<svg
   version="1.0"
   width="219.49001mm"
   height="96.18mm"
   id="svg265"
   sodipodi:docname="pv-panel-pout-over-cp.svg"
   inkscape:version="1.2.2 (732a01da63, 2022-12-09)"
   xmlns:inkscape="http://www.inkscape.org/namespaces/inkscape"
   xmlns:sodipodi="http://sodipodi.sourceforge.net/DTD/sodipodi-0.dtd"
   xmlns="http://www.w3.org/2000/svg"
   xmlns:svg="http://www.w3.org/2000/svg">
  <sodipodi:namedview
     id="namedview134"
     pagecolor="#ffffff"
     bordercolor="#000000"
     borderopacity="0.25"
     inkscape:showpageshadow="2"
     inkscape:pageopacity="0.0"
     inkscape:pagecheckerboard="0"
     inkscape:deskcolor="#d1d1d1"
     inkscape:document-units="mm"
     showgrid="false"
     showguides="false"
     inkscape:zoom="0.64921674"
     inkscape:cx="495.98228"
     inkscape:cy="-56.221594"
     inkscape:window-width="1440"
     inkscape:window-height="890"
     inkscape:window-x="-6"
     inkscape:window-y="-6"
     inkscape:window-maximized="1"
     inkscape:current-layer="svg265" />
  <defs
     id="defs3" />
  <path
     style="fill:none;stroke:#000000;stroke-width:0.359843px;stroke-linecap:round;stroke-linejoin:round;stroke-miterlimit:4;stroke-dasharray:none;stroke-opacity:1"
     d="m 24.829134,345.08898 v 5.75748"
     id="path5" />
  <text
     xml:space="preserve"
     style="font-style:normal;font-variant:normal;font-weight:700;font-size:9.6875px;line-height:125%;font-family:Arial;text-align:start;letter-spacing:0px;word-spacing:0px;text-anchor:start;fill:#000000;fill-opacity:1;stroke:none"
     x="18.024519"
     y="359.6163"
     id="text11"><tspan
       x="18.024519"
       y="359.6163"
       id="tspan9"><tspan
         dx="0"
         dy="0"
         style="font-style:normal;font-variant:normal;font-weight:700;font-size:9.6875px;font-family:Arial;fill:#000000"
         id="tspan7">1m</tspan></tspan></text>
  <path
     style="fill:none;stroke:#000000;stroke-width:0.359843px;stroke-linecap:round;stroke-linejoin:round;stroke-miterlimit:4;stroke-dasharray:none;stroke-opacity:1"
     d="m 97.15748,345.08898 v 5.75748"
     id="path13" />
  <text
     xml:space="preserve"
     style="font-style:normal;font-variant:normal;font-weight:700;font-size:9.6875px;line-height:125%;font-family:Arial;text-align:start;letter-spacing:0px;word-spacing:0px;text-anchor:start;fill:#000000;fill-opacity:1;stroke:none"
     x="90.352867"
     y="359.6163"
     id="text19"><tspan
       x="90.352867"
       y="359.6163"
       id="tspan17"><tspan
         dx="0"
         dy="0"
         style="font-style:normal;font-variant:normal;font-weight:700;font-size:9.6875px;font-family:Arial;fill:#000000"
         id="tspan15">2m</tspan></tspan></text>
  <path
     style="fill:none;stroke:#808080;stroke-width:0.359843px;stroke-linecap:round;stroke-linejoin:round;stroke-miterlimit:4;stroke-dasharray:1, 1;stroke-dashoffset:0;stroke-opacity:1"
     d="M 97.15748,345.08898 V 12.234646"
     id="path21" />
  <path
     style="fill:none;stroke:#000000;stroke-width:0.359843px;stroke-linecap:round;stroke-linejoin:round;stroke-miterlimit:4;stroke-dasharray:none;stroke-opacity:1"
     d="m 169.48583,345.08898 v 5.75748"
     id="path23" />
  <text
     xml:space="preserve"
     style="font-style:normal;font-variant:normal;font-weight:700;font-size:9.6875px;line-height:125%;font-family:Arial;text-align:start;letter-spacing:0px;word-spacing:0px;text-anchor:start;fill:#000000;fill-opacity:1;stroke:none"
     x="162.68121"
     y="359.6163"
     id="text29"><tspan
       x="162.68121"
       y="359.6163"
       id="tspan27"><tspan
         dx="0"
         dy="0"
         style="font-style:normal;font-variant:normal;font-weight:700;font-size:9.6875px;font-family:Arial;fill:#000000"
         id="tspan25">3m</tspan></tspan></text>
  <path
     style="fill:none;stroke:#808080;stroke-width:0.359843px;stroke-linecap:round;stroke-linejoin:round;stroke-miterlimit:4;stroke-dasharray:1, 1;stroke-dashoffset:0;stroke-opacity:1"
     d="M 169.48583,345.08898 V 12.234646"
     id="path31" />
  <path
     style="fill:none;stroke:#000000;stroke-width:0.359843px;stroke-linecap:round;stroke-linejoin:round;stroke-miterlimit:4;stroke-dasharray:none;stroke-opacity:1"
     d="m 241.81417,345.08898 v 5.75748"
     id="path33" />
  <text
     xml:space="preserve"
     style="font-style:normal;font-variant:normal;font-weight:700;font-size:9.6875px;line-height:125%;font-family:Arial;text-align:start;letter-spacing:0px;word-spacing:0px;text-anchor:start;fill:#000000;fill-opacity:1;stroke:none"
     x="235.00955"
     y="359.6163"
     id="text39"><tspan
       x="235.00955"
       y="359.6163"
       id="tspan37"><tspan
         dx="0"
         dy="0"
         style="font-style:normal;font-variant:normal;font-weight:700;font-size:9.6875px;font-family:Arial;fill:#000000"
         id="tspan35">4m</tspan></tspan></text>
  <path
     style="fill:none;stroke:#808080;stroke-width:0.359843px;stroke-linecap:round;stroke-linejoin:round;stroke-miterlimit:4;stroke-dasharray:1, 1;stroke-dashoffset:0;stroke-opacity:1"
     d="M 241.81417,345.08898 V 12.234646"
     id="path41" />
  <path
     style="fill:none;stroke:#000000;stroke-width:0.359843px;stroke-linecap:round;stroke-linejoin:round;stroke-miterlimit:4;stroke-dasharray:none;stroke-opacity:1"
     d="m 314.14252,345.08898 v 5.75748"
     id="path43" />
  <text
     xml:space="preserve"
     style="font-style:normal;font-variant:normal;font-weight:700;font-size:9.6875px;line-height:125%;font-family:Arial;text-align:start;letter-spacing:0px;word-spacing:0px;text-anchor:start;fill:#000000;fill-opacity:1;stroke:none"
     x="307.33789"
     y="359.6163"
     id="text49"><tspan
       x="307.33789"
       y="359.6163"
       id="tspan47"><tspan
         dx="0"
         dy="0"
         style="font-style:normal;font-variant:normal;font-weight:700;font-size:9.6875px;font-family:Arial;fill:#000000"
         id="tspan45">5m</tspan></tspan></text>
  <path
     style="fill:none;stroke:#808080;stroke-width:0.359843px;stroke-linecap:round;stroke-linejoin:round;stroke-miterlimit:4;stroke-dasharray:1, 1;stroke-dashoffset:0;stroke-opacity:1"
     d="M 314.14252,345.08898 V 12.234646"
     id="path51" />
  <path
     style="fill:none;stroke:#000000;stroke-width:0.359843px;stroke-linecap:round;stroke-linejoin:round;stroke-miterlimit:4;stroke-dasharray:none;stroke-opacity:1"
     d="m 386.47087,345.08898 v 5.75748"
     id="path53" />
  <text
     xml:space="preserve"
     style="font-style:normal;font-variant:normal;font-weight:700;font-size:9.6875px;line-height:125%;font-family:Arial;text-align:start;letter-spacing:0px;word-spacing:0px;text-anchor:start;fill:#000000;fill-opacity:1;stroke:none"
     x="379.66626"
     y="359.6163"
     id="text59"><tspan
       x="379.66626"
       y="359.6163"
       id="tspan57"><tspan
         dx="0"
         dy="0"
         style="font-style:normal;font-variant:normal;font-weight:700;font-size:9.6875px;font-family:Arial;fill:#000000"
         id="tspan55">6m</tspan></tspan></text>
  <path
     style="fill:none;stroke:#808080;stroke-width:0.359843px;stroke-linecap:round;stroke-linejoin:round;stroke-miterlimit:4;stroke-dasharray:1, 1;stroke-dashoffset:0;stroke-opacity:1"
     d="M 386.47087,345.08898 V 12.234646"
     id="path61" />
  <path
     style="fill:none;stroke:#000000;stroke-width:0.359843px;stroke-linecap:round;stroke-linejoin:round;stroke-miterlimit:4;stroke-dasharray:none;stroke-opacity:1"
     d="m 458.43937,345.08898 v 5.75748"
     id="path63" />
  <text
     xml:space="preserve"
     style="font-style:normal;font-variant:normal;font-weight:700;font-size:9.6875px;line-height:125%;font-family:Arial;text-align:start;letter-spacing:0px;word-spacing:0px;text-anchor:start;fill:#000000;fill-opacity:1;stroke:none"
     x="451.63477"
     y="359.6163"
     id="text69"><tspan
       x="451.63477"
       y="359.6163"
       id="tspan67"><tspan
         dx="0"
         dy="0"
         style="font-style:normal;font-variant:normal;font-weight:700;font-size:9.6875px;font-family:Arial;fill:#000000"
         id="tspan65">7m</tspan></tspan></text>
  <path
     style="fill:none;stroke:#808080;stroke-width:0.359843px;stroke-linecap:round;stroke-linejoin:round;stroke-miterlimit:4;stroke-dasharray:1, 1;stroke-dashoffset:0;stroke-opacity:1"
     d="M 458.43937,345.08898 V 12.234646"
     id="path71" />
  <path
     style="fill:none;stroke:#000000;stroke-width:0.359843px;stroke-linecap:round;stroke-linejoin:round;stroke-miterlimit:4;stroke-dasharray:none;stroke-opacity:1"
     d="m 530.76772,345.08898 v 5.75748"
     id="path73" />
  <text
     xml:space="preserve"
     style="font-style:normal;font-variant:normal;font-weight:700;font-size:9.6875px;line-height:125%;font-family:Arial;text-align:start;letter-spacing:0px;word-spacing:0px;text-anchor:start;fill:#000000;fill-opacity:1;stroke:none"
     x="523.96313"
     y="359.6163"
     id="text79"><tspan
       x="523.96313"
       y="359.6163"
       id="tspan77"><tspan
         dx="0"
         dy="0"
         style="font-style:normal;font-variant:normal;font-weight:700;font-size:9.6875px;font-family:Arial;fill:#000000"
         id="tspan75">8m</tspan></tspan></text>
  <path
     style="fill:none;stroke:#808080;stroke-width:0.359843px;stroke-linecap:round;stroke-linejoin:round;stroke-miterlimit:4;stroke-dasharray:1, 1;stroke-dashoffset:0;stroke-opacity:1"
     d="M 530.76772,345.08898 V 12.234646"
     id="path81" />
  <path
     style="fill:none;stroke:#000000;stroke-width:0.359843px;stroke-linecap:round;stroke-linejoin:round;stroke-miterlimit:4;stroke-dasharray:none;stroke-opacity:1"
     d="m 603.09606,345.08898 v 5.75748"
     id="path83" />
  <text
     xml:space="preserve"
     style="font-style:normal;font-variant:normal;font-weight:700;font-size:9.6875px;line-height:125%;font-family:Arial;text-align:start;letter-spacing:0px;word-spacing:0px;text-anchor:start;fill:#000000;fill-opacity:1;stroke:none"
     x="596.29144"
     y="359.6163"
     id="text89"><tspan
       x="596.29144"
       y="359.6163"
       id="tspan87"><tspan
         dx="0"
         dy="0"
         style="font-style:normal;font-variant:normal;font-weight:700;font-size:9.6875px;font-family:Arial;fill:#000000"
         id="tspan85">9m</tspan></tspan></text>
  <path
     style="fill:none;stroke:#808080;stroke-width:0.359843px;stroke-linecap:round;stroke-linejoin:round;stroke-miterlimit:4;stroke-dasharray:1, 1;stroke-dashoffset:0;stroke-opacity:1"
     d="M 603.09606,345.08898 V 12.234646"
     id="path91" />
  <path
     style="fill:none;stroke:#000000;stroke-width:0.359843px;stroke-linecap:round;stroke-linejoin:round;stroke-miterlimit:4;stroke-dasharray:none;stroke-opacity:1"
     d="m 675.42441,345.08898 v 5.75748"
     id="path93" />
  <text
     xml:space="preserve"
     style="font-style:normal;font-variant:normal;font-weight:700;font-size:9.6875px;line-height:125%;font-family:Arial;text-align:start;letter-spacing:0px;word-spacing:0px;text-anchor:start;fill:#000000;fill-opacity:1;stroke:none"
     x="666.11084"
     y="359.6163"
     id="text99"><tspan
       x="666.11084"
       y="359.6163"
       id="tspan97"><tspan
         dx="0"
         dy="0"
         style="font-style:normal;font-variant:normal;font-weight:700;font-size:9.6875px;font-family:Arial;fill:#000000"
         id="tspan95">10m</tspan></tspan></text>
  <path
     style="fill:none;stroke:#808080;stroke-width:0.359843px;stroke-linecap:round;stroke-linejoin:round;stroke-miterlimit:4;stroke-dasharray:1, 1;stroke-dashoffset:0;stroke-opacity:1"
     d="M 675.42441,345.08898 V 12.234646"
     id="path101" />
  <path
     style="fill:none;stroke:#000000;stroke-width:0.359843px;stroke-linecap:round;stroke-linejoin:round;stroke-miterlimit:4;stroke-dasharray:none;stroke-opacity:1"
     d="m 747.75276,345.08898 v 5.75748"
     id="path103" />
  <text
     xml:space="preserve"
     style="font-style:normal;font-variant:normal;font-weight:700;font-size:9.6875px;line-height:125%;font-family:Arial;text-align:start;letter-spacing:0px;word-spacing:0px;text-anchor:start;fill:#000000;fill-opacity:1;stroke:none"
     x="738.97369"
     y="359.6163"
     id="text109"><tspan
       x="738.97369"
       y="359.6163"
       id="tspan107"><tspan
         dx="0"
         dy="0"
         style="font-style:normal;font-variant:normal;font-weight:700;font-size:9.6875px;font-family:Arial;fill:#000000"
         id="tspan105">11m</tspan></tspan></text>
  <path
     style="fill:none;stroke:#808080;stroke-width:0.359843px;stroke-linecap:round;stroke-linejoin:round;stroke-miterlimit:4;stroke-dasharray:1, 1;stroke-dashoffset:0;stroke-opacity:1"
     d="M 747.75276,345.08898 V 12.234646"
     id="path111" />
  <path
     style="fill:none;stroke:#000000;stroke-width:0.359843px;stroke-linecap:round;stroke-linejoin:round;stroke-miterlimit:4;stroke-dasharray:none;stroke-opacity:1"
     d="m 820.0811,345.08898 v 5.75748"
     id="path113" />
  <text
     xml:space="preserve"
     style="font-style:normal;font-variant:normal;font-weight:700;font-size:9.6875px;line-height:125%;font-family:Arial;text-align:start;letter-spacing:0px;word-spacing:0px;text-anchor:start;fill:#000000;fill-opacity:1;stroke:none"
     x="810.76752"
     y="359.6163"
     id="text119"><tspan
       x="810.76752"
       y="359.6163"
       id="tspan117"><tspan
         dx="0"
         dy="0"
         style="font-style:normal;font-variant:normal;font-weight:700;font-size:9.6875px;font-family:Arial;fill:#000000"
         id="tspan115">12m</tspan></tspan></text>
  <text
     xml:space="preserve"
     style="font-style:normal;font-variant:normal;font-weight:700;font-size:9.6875px;line-height:125%;font-family:Arial;text-align:start;letter-spacing:0px;word-spacing:0px;text-anchor:start;fill:#000000;fill-opacity:1;stroke:none"
     x="0.21699274"
     y="348.10135"
     id="text125"><tspan
       x="0.21699274"
       y="348.10135"
       id="tspan123"><tspan
         dx="0"
         dy="0"
         style="font-style:normal;font-variant:normal;font-weight:700;font-size:9.6875px;font-family:Arial;fill:#000000"
         id="tspan121">0.76</tspan></tspan></text>
  <path
     style="fill:none;stroke:#000000;stroke-width:0.359843px;stroke-linecap:round;stroke-linejoin:round;stroke-miterlimit:4;stroke-dasharray:none;stroke-opacity:1"
     d="m 24.829134,345.08898 h -5.75748"
     id="path127" />
  <text
     xml:space="preserve"
     style="font-style:normal;font-variant:normal;font-weight:700;font-size:9.6875px;line-height:125%;font-family:Arial;text-align:start;letter-spacing:0px;word-spacing:0px;text-anchor:start;fill:#000000;fill-opacity:1;stroke:none"
     x="0.21697871"
     y="320.39346"
     id="text133"><tspan
       x="0.21697871"
       y="320.39346"
       id="tspan131"><tspan
         dx="0"
         dy="0"
         style="font-style:normal;font-variant:normal;font-weight:700;font-size:9.6875px;font-family:Arial;fill:#000000"
         id="tspan129">0.78</tspan></tspan></text>
  <path
     style="fill:none;stroke:#000000;stroke-width:0.359843px;stroke-linecap:round;stroke-linejoin:round;stroke-miterlimit:4;stroke-dasharray:none;stroke-opacity:1"
     d="m 24.829134,317.3811 h -5.75748"
     id="path135" />
  <path
     style="fill:none;stroke:#808080;stroke-width:0.359843px;stroke-linecap:round;stroke-linejoin:round;stroke-miterlimit:4;stroke-dasharray:1, 1;stroke-dashoffset:0;stroke-opacity:1"
     d="M 24.829134,317.3811 H 820.0811"
     id="path137" />
  <text
     xml:space="preserve"
     style="font-style:normal;font-variant:normal;font-weight:700;font-size:9.6875px;line-height:125%;font-family:Arial;text-align:start;letter-spacing:0px;word-spacing:0px;text-anchor:start;fill:#000000;fill-opacity:1;stroke:none"
     x="0.21697871"
     y="292.68558"
     id="text143"><tspan
       x="0.21697871"
       y="292.68558"
       id="tspan141"><tspan
         dx="0"
         dy="0"
         style="font-style:normal;font-variant:normal;font-weight:700;font-size:9.6875px;font-family:Arial;fill:#000000"
         id="tspan139">0.80</tspan></tspan></text>
  <path
     style="fill:none;stroke:#000000;stroke-width:0.359843px;stroke-linecap:round;stroke-linejoin:round;stroke-miterlimit:4;stroke-dasharray:none;stroke-opacity:1"
     d="m 24.829134,289.67323 h -5.75748"
     id="path145" />
  <path
     style="fill:none;stroke:#808080;stroke-width:0.359843px;stroke-linecap:round;stroke-linejoin:round;stroke-miterlimit:4;stroke-dasharray:1, 1;stroke-dashoffset:0;stroke-opacity:1"
     d="M 24.829134,289.67323 H 820.0811"
     id="path147" />
  <text
     xml:space="preserve"
     style="font-style:normal;font-variant:normal;font-weight:700;font-size:9.6875px;line-height:125%;font-family:Arial;text-align:start;letter-spacing:0px;word-spacing:0px;text-anchor:start;fill:#000000;fill-opacity:1;stroke:none"
     x="0.21697871"
     y="264.97769"
     id="text153"><tspan
       x="0.21697871"
       y="264.97769"
       id="tspan151"><tspan
         dx="0"
         dy="0"
         style="font-style:normal;font-variant:normal;font-weight:700;font-size:9.6875px;font-family:Arial;fill:#000000"
         id="tspan149">0.82</tspan></tspan></text>
  <path
     style="fill:none;stroke:#000000;stroke-width:0.359843px;stroke-linecap:round;stroke-linejoin:round;stroke-miterlimit:4;stroke-dasharray:none;stroke-opacity:1"
     d="m 24.829134,261.96535 h -5.75748"
     id="path155" />
  <path
     style="fill:none;stroke:#808080;stroke-width:0.359843px;stroke-linecap:round;stroke-linejoin:round;stroke-miterlimit:4;stroke-dasharray:1, 1;stroke-dashoffset:0;stroke-opacity:1"
     d="M 24.829134,261.96535 H 820.0811"
     id="path157" />
  <text
     xml:space="preserve"
     style="font-style:normal;font-variant:normal;font-weight:700;font-size:9.6875px;line-height:125%;font-family:Arial;text-align:start;letter-spacing:0px;word-spacing:0px;text-anchor:start;fill:#000000;fill-opacity:1;stroke:none"
     x="0.21697871"
     y="237.26984"
     id="text163"><tspan
       x="0.21697871"
       y="237.26984"
       id="tspan161"><tspan
         dx="0"
         dy="0"
         style="font-style:normal;font-variant:normal;font-weight:700;font-size:9.6875px;font-family:Arial;fill:#000000"
         id="tspan159">0.84</tspan></tspan></text>
  <path
     style="fill:none;stroke:#000000;stroke-width:0.359843px;stroke-linecap:round;stroke-linejoin:round;stroke-miterlimit:4;stroke-dasharray:none;stroke-opacity:1"
     d="m 24.829134,234.25748 h -5.75748"
     id="path165" />
  <path
     style="fill:none;stroke:#808080;stroke-width:0.359843px;stroke-linecap:round;stroke-linejoin:round;stroke-miterlimit:4;stroke-dasharray:1, 1;stroke-dashoffset:0;stroke-opacity:1"
     d="M 24.829134,234.25748 H 820.0811"
     id="path167" />
  <text
     xml:space="preserve"
     style="font-style:normal;font-variant:normal;font-weight:700;font-size:9.6875px;line-height:125%;font-family:Arial;text-align:start;letter-spacing:0px;word-spacing:0px;text-anchor:start;fill:#000000;fill-opacity:1;stroke:none"
     x="0.21697871"
     y="209.56197"
     id="text173"><tspan
       x="0.21697871"
       y="209.56197"
       id="tspan171"><tspan
         dx="0"
         dy="0"
         style="font-style:normal;font-variant:normal;font-weight:700;font-size:9.6875px;font-family:Arial;fill:#000000"
         id="tspan169">0.86</tspan></tspan></text>
  <path
     style="fill:none;stroke:#000000;stroke-width:0.359843px;stroke-linecap:round;stroke-linejoin:round;stroke-miterlimit:4;stroke-dasharray:none;stroke-opacity:1"
     d="m 24.829134,206.54961 h -5.75748"
     id="path175" />
  <path
     style="fill:none;stroke:#808080;stroke-width:0.359843px;stroke-linecap:round;stroke-linejoin:round;stroke-miterlimit:4;stroke-dasharray:1, 1;stroke-dashoffset:0;stroke-opacity:1"
     d="M 24.829134,206.54961 H 820.0811"
     id="path177" />
  <text
     xml:space="preserve"
     style="font-style:normal;font-variant:normal;font-weight:700;font-size:9.6875px;line-height:125%;font-family:Arial;text-align:start;letter-spacing:0px;word-spacing:0px;text-anchor:start;fill:#000000;fill-opacity:1;stroke:none"
     x="0.21697871"
     y="181.85408"
     id="text183"><tspan
       x="0.21697871"
       y="181.85408"
       id="tspan181"><tspan
         dx="0"
         dy="0"
         style="font-style:normal;font-variant:normal;font-weight:700;font-size:9.6875px;font-family:Arial;fill:#000000"
         id="tspan179">0.88</tspan></tspan></text>
  <path
     style="fill:none;stroke:#000000;stroke-width:0.359843px;stroke-linecap:round;stroke-linejoin:round;stroke-miterlimit:4;stroke-dasharray:none;stroke-opacity:1"
     d="m 24.829134,178.84173 h -5.75748"
     id="path185" />
  <path
     style="fill:none;stroke:#808080;stroke-width:0.359843px;stroke-linecap:round;stroke-linejoin:round;stroke-miterlimit:4;stroke-dasharray:1, 1;stroke-dashoffset:0;stroke-opacity:1"
     d="M 24.829134,178.84173 H 820.0811"
     id="path187" />
  <text
     xml:space="preserve"
     style="font-style:normal;font-variant:normal;font-weight:700;font-size:9.6875px;line-height:125%;font-family:Arial;text-align:start;letter-spacing:0px;word-spacing:0px;text-anchor:start;fill:#000000;fill-opacity:1;stroke:none"
     x="0.21697871"
     y="153.78636"
     id="text193"><tspan
       x="0.21697871"
       y="153.78636"
       id="tspan191"><tspan
         dx="0"
         dy="0"
         style="font-style:normal;font-variant:normal;font-weight:700;font-size:9.6875px;font-family:Arial;fill:#000000"
         id="tspan189">0.90</tspan></tspan></text>
  <path
     style="fill:none;stroke:#000000;stroke-width:0.359843px;stroke-linecap:round;stroke-linejoin:round;stroke-miterlimit:4;stroke-dasharray:none;stroke-opacity:1"
     d="m 24.829134,150.77402 h -5.75748"
     id="path195" />
  <path
     style="fill:none;stroke:#808080;stroke-width:0.359843px;stroke-linecap:round;stroke-linejoin:round;stroke-miterlimit:4;stroke-dasharray:1, 1;stroke-dashoffset:0;stroke-opacity:1"
     d="M 24.829134,150.77402 H 820.0811"
     id="path197" />
  <text
     xml:space="preserve"
     style="font-style:normal;font-variant:normal;font-weight:700;font-size:9.6875px;line-height:125%;font-family:Arial;text-align:start;letter-spacing:0px;word-spacing:0px;text-anchor:start;fill:#000000;fill-opacity:1;stroke:none"
     x="0.21697871"
     y="126.0785"
     id="text203"><tspan
       x="0.21697871"
       y="126.0785"
       id="tspan201"><tspan
         dx="0"
         dy="0"
         style="font-style:normal;font-variant:normal;font-weight:700;font-size:9.6875px;font-family:Arial;fill:#000000"
         id="tspan199">0.92</tspan></tspan></text>
  <path
     style="fill:none;stroke:#000000;stroke-width:0.359843px;stroke-linecap:round;stroke-linejoin:round;stroke-miterlimit:4;stroke-dasharray:none;stroke-opacity:1"
     d="m 24.829134,123.06614 h -5.75748"
     id="path205" />
  <path
     style="fill:none;stroke:#808080;stroke-width:0.359843px;stroke-linecap:round;stroke-linejoin:round;stroke-miterlimit:4;stroke-dasharray:1, 1;stroke-dashoffset:0;stroke-opacity:1"
     d="M 24.829134,123.06614 H 820.0811"
     id="path207" />
  <text
     xml:space="preserve"
     style="font-style:normal;font-variant:normal;font-weight:700;font-size:9.6875px;line-height:125%;font-family:Arial;text-align:start;letter-spacing:0px;word-spacing:0px;text-anchor:start;fill:#000000;fill-opacity:1;stroke:none"
     x="0.21697871"
     y="98.370621"
     id="text213"><tspan
       x="0.21697871"
       y="98.370621"
       id="tspan211"><tspan
         dx="0"
         dy="0"
         style="font-style:normal;font-variant:normal;font-weight:700;font-size:9.6875px;font-family:Arial;fill:#000000"
         id="tspan209">0.94</tspan></tspan></text>
  <path
     style="fill:none;stroke:#000000;stroke-width:0.359843px;stroke-linecap:round;stroke-linejoin:round;stroke-miterlimit:4;stroke-dasharray:none;stroke-opacity:1"
     d="m 24.829134,95.358268 h -5.75748"
     id="path215" />
  <path
     style="fill:none;stroke:#808080;stroke-width:0.359843px;stroke-linecap:round;stroke-linejoin:round;stroke-miterlimit:4;stroke-dasharray:1, 1;stroke-dashoffset:0;stroke-opacity:1"
     d="M 24.829134,95.358268 H 820.0811"
     id="path217" />
  <text
     xml:space="preserve"
     style="font-style:normal;font-variant:normal;font-weight:700;font-size:9.6875px;line-height:125%;font-family:Arial;text-align:start;letter-spacing:0px;word-spacing:0px;text-anchor:start;fill:#000000;fill-opacity:1;stroke:none"
     x="0.21697871"
     y="70.66275"
     id="text223"><tspan
       x="0.21697871"
       y="70.66275"
       id="tspan221"><tspan
         dx="0"
         dy="0"
         style="font-style:normal;font-variant:normal;font-weight:700;font-size:9.6875px;font-family:Arial;fill:#000000"
         id="tspan219">0.96</tspan></tspan></text>
  <path
     style="fill:none;stroke:#000000;stroke-width:0.359843px;stroke-linecap:round;stroke-linejoin:round;stroke-miterlimit:4;stroke-dasharray:none;stroke-opacity:1"
     d="m 24.829134,67.650394 h -5.75748"
     id="path225" />
  <path
     style="fill:none;stroke:#808080;stroke-width:0.359843px;stroke-linecap:round;stroke-linejoin:round;stroke-miterlimit:4;stroke-dasharray:1, 1;stroke-dashoffset:0;stroke-opacity:1"
     d="M 24.829134,67.650394 H 820.0811"
     id="path227" />
  <text
     xml:space="preserve"
     style="font-style:normal;font-variant:normal;font-weight:700;font-size:9.6875px;line-height:125%;font-family:Arial;text-align:start;letter-spacing:0px;word-spacing:0px;text-anchor:start;fill:#000000;fill-opacity:1;stroke:none"
     x="0.21697871"
     y="42.954876"
     id="text233"><tspan
       x="0.21697871"
       y="42.954876"
       id="tspan231"><tspan
         dx="0"
         dy="0"
         style="font-style:normal;font-variant:normal;font-weight:700;font-size:9.6875px;font-family:Arial;fill:#000000"
         id="tspan229">0.98</tspan></tspan></text>
  <path
     style="fill:none;stroke:#000000;stroke-width:0.359843px;stroke-linecap:round;stroke-linejoin:round;stroke-miterlimit:4;stroke-dasharray:none;stroke-opacity:1"
     d="m 24.829134,39.94252 h -5.75748"
     id="path235" />
  <path
     style="fill:none;stroke:#808080;stroke-width:0.359843px;stroke-linecap:round;stroke-linejoin:round;stroke-miterlimit:4;stroke-dasharray:1, 1;stroke-dashoffset:0;stroke-opacity:1"
     d="M 24.829134,39.94252 H 820.0811"
     id="path237" />
  <text
     xml:space="preserve"
     style="font-style:normal;font-variant:normal;font-weight:700;font-size:9.6875px;line-height:125%;font-family:Arial;text-align:start;letter-spacing:0px;word-spacing:0px;text-anchor:start;fill:#000000;fill-opacity:1;stroke:none"
     x="0.21697871"
     y="15.247002"
     id="text243"><tspan
       x="0.21697871"
       y="15.247002"
       id="tspan241"><tspan
         dx="0"
         dy="0"
         style="font-style:normal;font-variant:normal;font-weight:700;font-size:9.6875px;font-family:Arial;fill:#000000"
         id="tspan239">1.00</tspan></tspan></text>
  <path
     style="fill:none;stroke:#000000;stroke-width:0.359843px;stroke-linecap:round;stroke-linejoin:round;stroke-miterlimit:4;stroke-dasharray:none;stroke-opacity:1"
     d="m 24.829134,12.234646 h -5.75748"
     id="path245" />
  <path
     style="fill:none;stroke:#000000;stroke-width:0.359843px;stroke-linecap:round;stroke-linejoin:round;stroke-miterlimit:4;stroke-dasharray:none;stroke-opacity:1"
     d="M 24.829134,12.234646 H 820.0811 V 345.08898 H 24.829134 V 12.234646"
     id="path247" />
  <text
     xml:space="preserve"
     style="font-style:normal;font-variant:normal;font-weight:700;font-size:9.6875px;line-height:125%;font-family:Arial;text-align:start;letter-spacing:0px;word-spacing:0px;text-anchor:start;fill:#00ff00;fill-opacity:1;stroke:none"
     x="176.89314"
     y="8.7698364"
     id="text253"><tspan
       x="176.89314"
       y="8.7698364"
       id="tspan251"><tspan
         dx="0"
         dy="0"
         style="font-style:normal;font-variant:normal;font-weight:700;font-size:9.6875px;font-family:Arial;fill:#00ff00"
         id="tspan249">pout_300/pmpp_300</tspan></tspan></text>
  <path
     style="fill:none;stroke:#00ff00;stroke-width:0.359843px;stroke-linecap:round;stroke-linejoin:round;stroke-miterlimit:4;stroke-dasharray:none;stroke-opacity:1"
     d="m 24.829134,210.50787 1.799212,-5.39763 1.799213,-5.0378 1.799213,-5.39764 1.799212,-5.03779 1.799213,-5.39764 1.799212,-5.0378 1.799213,-5.39763 1.799213,-5.39764 1.799212,-5.0378 1.799213,-5.39763 1.799212,-3.23859 1.799213,-3.23858 1.799213,-3.59842 1.799212,-3.23859 1.799213,-3.59842 1.799212,-3.23858 1.799213,-3.59843 1.799213,-3.23858 1.799212,-3.23859 1.799213,-3.59842 1.799212,-2.15906 2.159056,-2.51889 1.799212,-2.15906 1.799213,-2.5189 1.799212,-2.15905 1.799213,-2.5189 1.799213,-2.15905 1.799212,-2.5189 1.799213,-2.15906 1.799212,-2.51889 1.799213,-1.439375 1.799213,-1.799212 1.799212,-1.799213 1.799213,-1.43937 1.799212,-1.799212 1.799213,-1.799213 1.799213,-1.43937 1.799212,-1.799213 1.799213,-1.799212 1.799212,-1.43937 1.799213,-1.43937 1.799217,-1.079528 1.79921,-1.43937 1.79921,-1.079528 1.79921,-1.43937 1.79922,-1.079527 1.79921,-1.43937 1.79921,-1.079528 1.79921,-1.079528 1.79922,-1.43937 1.79921,-1.079527 1.79921,-0.719685 1.79921,-1.079528 1.79922,-0.719685 1.79921,-1.079527 1.79921,-1.079528 1.79921,-0.719685 1.79922,-1.079527 1.79921,-1.079528 1.79921,-0.719685 1.79921,-0.719685 1.79922,-0.719685 1.79921,-0.719685 1.79921,-0.719685 1.79922,-0.719685 1.79921,-0.719685 2.15905,-1.079528 1.79922,-0.719685 1.79921,-0.719685 1.79921,-0.719685 1.79921,-0.359843 1.79922,-0.719685 1.79921,-0.719685 1.79921,-0.359842 1.79921,-0.719685 1.79922,-0.359843 1.79921,-0.719685 1.79921,-0.719685 1.79921,-0.359842 1.79922,-0.719685 1.79921,-0.359843 1.79921,-0.359842 1.79921,-0.719685 1.79922,-0.359843 1.79921,-0.359842 1.79921,-0.719685 1.79921,-0.359843 1.79922,-0.359843 1.79921,-0.719685 1.79921,-0.359842 1.79922,-0.359843 1.79921,-0.359842 1.79921,-0.359843 1.79921,-0.359842 1.79922,-0.359843 1.79921,-0.359842 1.79921,-0.359843 1.79921,-0.359842 1.79922,-0.359843 1.79921,-0.359842 1.79921,-0.359843 1.79921,-0.359842 1.79922,-0.359843 1.79921,-0.359842 1.79921,-0.359843 1.79921,-0.359842 1.79922,-0.359843 h 1.79921 l 1.79921,-0.359842 1.79921,-0.359843 2.15906,-0.359842 1.79921,-0.359843 h 1.79922 l 1.79921,-0.359843 1.79921,-0.359842 1.79921,-0.359843 h 1.79922 l 1.79921,-0.359842 1.79921,-0.359843 1.79921,-0.359842 h 1.79922 l 1.79921,-0.359843 h 1.79921 l 1.79921,-0.359842 1.79922,-0.359843 h 1.79921 l 1.79921,-0.359842 h 1.79921 l 1.79922,-0.359843 1.79921,-0.359842 h 1.79921 l 1.79921,-0.359843 h 1.79922 l 1.79921,-0.359842 h 1.79921 l 1.79921,-0.359843 h 1.79922 L 274.2,30.946457 h 1.79921 l 1.79922,-0.359843 h 1.79921 l 1.79921,-0.359842 h 1.79921 l 1.79922,-0.359843 h 1.79921 l 1.79921,-0.359842 h 1.79921 1.79922 l 1.79921,-0.359843 h 1.79921 l 1.79921,-0.359842 h 1.79922 l 1.79921,-0.359843 h 1.79921 2.15906 l 1.79921,-0.359842 h 1.79921 1.79921 l 1.79922,-0.359843 h 1.79921 l 1.79921,-0.359843 h 1.79921 1.79922 l 1.79921,-0.359842 h 1.79921 1.79922 l 1.79921,-0.359843 h 1.79921 1.79921 l 1.79922,-0.359842 h 1.79921 1.79921 1.79921 l 1.79922,-0.359843 h 1.79921 1.79921 l 1.79921,-0.359842 h 1.79922 1.79921 1.79921 l 1.79921,-0.359843 h 1.79922 1.79921 l 1.79921,-0.359842 h 1.79921 1.79922 1.79921 l 1.79921,-0.359843 h 1.79922 1.79921 1.79921 1.79921 l 1.79922,-0.359842 h 1.79921 1.79921 1.79921 l 1.79922,-0.359843 h 1.79921 2.15905 1.79922 l 1.79921,-0.359842 h 1.79921 1.79921 1.79922 1.79921 l 1.79921,-0.359843 h 1.79921 1.79922 1.79921 1.79921 1.79921 l 1.79922,-0.359842 h 1.79921 1.79921 1.79922 1.79921 l 1.79921,-0.359843 h 1.79921 1.79922 1.79921 1.79921 1.79921 l 1.79922,-0.359842 h 1.79921 1.79921 1.79921 1.79922 1.79921 l 1.79921,-0.359843 h 1.79921 1.79922 1.79921 1.79921 1.79921 1.79922 l 1.79921,-0.359842 h 1.79921 1.79921 1.79922 1.79921 1.79921 2.15906 l 1.79921,-0.359843 h 1.79921 1.79922 1.79921 1.79921 1.79921 1.79922 1.79921 l 1.79921,-0.359842 h 1.79921 1.79922 1.79921 1.79921 1.79921 1.79922 1.79921 l 1.79921,-0.359843 h 1.79921 1.79922 1.79921 1.79921 1.79921 1.79922 1.79921 1.79921 1.79922 l 1.79921,-0.359842 h 1.79921 1.79921 1.79922 1.79921 1.79921 1.79921 1.79922 1.79921 1.79921 l 1.79921,-0.359843 h 1.79922 1.79921 1.79921 1.79921 1.79922 1.79921 2.15905 1.79922 1.79921 1.79921 l 1.79922,-0.359842 h 1.79921 1.79921 1.79921 1.79922 1.79921 1.79921 1.79921 1.79922 1.79921 1.79921 1.79921 1.79922 l 1.79921,-0.359843 h 1.79921 1.79921 1.79922 1.79921 1.79921 1.79921 1.79922 1.79921 1.79921 1.79921 1.79922 1.79921 1.79921 l 1.79922,-0.359842 h 1.79921 1.79921 1.79921 1.79922 1.79921 1.79921 1.79921 1.79922 1.79921 1.79921 1.79921 1.79922 1.79921 2.15905 l 1.79922,-0.359843 h 1.79921 1.79921 1.79921 1.79922 1.79921 1.79921 1.79921 1.79922 1.79921 1.79921 1.79922 1.79921 1.79921 1.79921 1.79922 1.79921 1.79921 l 1.79921,-0.359843 h 1.79922 1.79921 1.79921 1.79921 1.79922 1.79921 1.79921 1.79921 1.79922 1.79921 1.79921 1.79921 1.79922 1.79921 1.79921 1.79922 1.79921 1.79921 1.79921 1.79922 l 1.79921,-0.359842 h 1.79921 1.79921 2.15906 1.79921 1.79921 1.79922 1.79921 1.79921 1.79921 1.79922 1.79921 1.79921 1.79921 1.79922 1.79921 1.79921 1.79921 1.79922 1.79921 1.79921 1.79922 1.79921 1.79921 1.79921 l 1.79922,-0.359843 h 1.79921 1.79921 1.79921 1.79922 1.79921 1.79921 1.79921 1.79922 1.79921 1.79921 1.79921 1.79922 1.79921 1.79921 1.79921 1.79922 1.79921 1.79921 1.79921 1.79922 1.79921 2.15906 1.79921 1.79921 1.79921 1.79922 1.79921 1.79921 l 1.79921,-0.359842 h 1.79922 1.79921 1.79921 1.79921 1.79922 1.79921 1.79921 1.79921 1.79922 1.79921 1.79921 1.79921 1.79922 1.79921 1.79921"
     id="path255" />
  <text
     xml:space="preserve"
     style="font-style:normal;font-variant:normal;font-weight:700;font-size:9.6875px;line-height:125%;font-family:Arial;text-align:start;letter-spacing:0px;word-spacing:0px;text-anchor:start;fill:#ff00ff;fill-opacity:1;stroke:none"
     x="574.5191"
     y="8.7698364"
     id="text261"><tspan
       x="574.5191"
       y="8.7698364"
       id="tspan259"><tspan
         dx="0"
         dy="0"
         style="font-style:normal;font-variant:normal;font-weight:700;font-size:9.6875px;font-family:Arial;fill:#ff00ff"
         id="tspan257">pout_550/pmpp_550</tspan></tspan></text>
  <path
     style="fill:none;stroke:#ff00ff;stroke-width:0.359843px;stroke-linecap:round;stroke-linejoin:round;stroke-miterlimit:4;stroke-dasharray:none;stroke-opacity:1"
     d="m 24.829134,322.4189 1.799212,-7.5567 1.799213,-7.55669 1.799213,-7.55669 1.799212,-7.55669 1.799213,-7.5567 1.799212,-7.55669 1.799213,-7.91654 1.799213,-7.55669 1.799212,-7.55669 1.799213,-7.55669 1.799212,-5.0378 1.799213,-5.03779 1.799213,-5.0378 1.799212,-5.0378 1.799213,-5.03779 1.799212,-5.0378 1.799213,-5.03779 1.799213,-5.0378 1.799212,-5.03779 1.799213,-5.0378 1.799212,-3.59842 2.159056,-3.59843 1.799212,-3.59842 1.799213,-3.23859 1.799212,-3.59842 1.799213,-3.59843 1.799213,-3.59842 1.799212,-3.59843 1.799213,-3.59842 1.799212,-3.23858 1.799213,-2.87874 1.799213,-2.5189 1.799212,-2.5189 1.799213,-2.5189 1.799212,-2.87874 1.799213,-2.51889 1.799213,-2.5189 1.799212,-2.5189 1.799213,-2.87874 1.799212,-2.5189 1.799213,-1.79921 1.799217,-2.15906 1.79921,-1.79921 1.79921,-2.15905 1.79921,-1.79922 1.79922,-2.15905 1.79921,-1.79921 1.79921,-2.15906 1.79921,-1.79921 1.79922,-2.15906 1.79921,-1.43937 1.79921,-1.43937 1.79921,-1.79921 1.79922,-1.43937 1.79921,-1.43937 1.79921,-1.43937 1.79921,-1.79921 1.79922,-1.43937 1.79921,-1.43937 1.79921,-1.439372 1.79921,-1.43937 1.79922,-1.079528 1.79921,-1.43937 1.79921,-1.079527 1.79922,-1.079528 1.79921,-1.43937 2.15905,-1.079528 1.79922,-1.43937 1.79921,-1.079527 1.79921,-1.079528 1.79921,-1.079527 1.79922,-1.079528 1.79921,-0.719685 1.79921,-1.079527 1.79921,-1.079528 1.79922,-1.079528 1.79921,-0.719685 1.79921,-1.079527 1.79921,-1.079528 1.79922,-1.079527 1.79921,-0.719685 1.79921,-0.719685 1.79921,-0.719685 1.79922,-1.079528 1.79921,-0.719685 1.79921,-0.719685 1.79921,-0.719685 1.79922,-0.719685 1.79921,-1.079528 1.79921,-0.719685 1.79922,-0.719685 1.79921,-0.719685 1.79921,-0.359842 1.79921,-0.719685 1.79922,-0.719685 1.79921,-0.719685 1.79921,-0.719685 1.79921,-0.719685 1.79922,-0.719686 1.79921,-0.359842 1.79921,-0.719685 1.79921,-0.359843 1.79922,-0.719685 1.79921,-0.719685 1.79921,-0.359842 1.79921,-0.719685 1.79922,-0.359843 1.79921,-0.719685 1.79921,-0.359842 1.79921,-0.719685 2.15906,-0.359843 1.79921,-0.359842 1.79922,-0.719685 1.79921,-0.359843 1.79921,-0.359842 1.79921,-0.719686 1.79922,-0.359842 1.79921,-0.359843 1.79921,-0.359842 1.79921,-0.719685 1.79922,-0.359843 1.79921,-0.359842 1.79921,-0.359843 1.79921,-0.359842 1.79922,-0.359843 1.79921,-0.359842 1.79921,-0.719685 1.79921,-0.359843 1.79922,-0.359842 1.79921,-0.359843 1.79921,-0.359842 1.79921,-0.359843 1.79922,-0.359842 1.79921,-0.359843 1.79921,-0.359842 1.79921,-0.359843 h 1.79922 L 274.2,46.059843 275.99921,45.7 l 1.79922,-0.359843 1.79921,-0.359842 1.79921,-0.359843 1.79921,-0.359842 1.79922,-0.359843 h 1.79921 l 1.79921,-0.359842 1.79921,-0.359843 1.79922,-0.359842 1.79921,-0.359843 1.79921,-0.359842 h 1.79921 l 1.79922,-0.359843 1.79921,-0.359842 h 1.79921 l 2.15906,-0.359843 1.79921,-0.359842 1.79921,-0.359843 h 1.79921 l 1.79922,-0.359842 1.79921,-0.359843 h 1.79921 l 1.79921,-0.359842 1.79922,-0.359843 h 1.79921 l 1.79921,-0.359842 h 1.79922 l 1.79921,-0.359843 1.79921,-0.359842 h 1.79921 l 1.79922,-0.359843 h 1.79921 l 1.79921,-0.359842 1.79921,-0.359843 h 1.79922 l 1.79921,-0.359843 h 1.79921 l 1.79921,-0.359842 h 1.79922 l 1.79921,-0.359843 h 1.79921 l 1.79921,-0.359842 h 1.79922 l 1.79921,-0.359843 h 1.79921 l 1.79921,-0.359842 h 1.79922 l 1.79921,-0.359843 h 1.79921 l 1.79922,-0.359842 h 1.79921 l 1.79921,-0.359843 h 1.79921 1.79922 l 1.79921,-0.359842 h 1.79921 l 1.79921,-0.359843 h 1.79922 l 1.79921,-0.359842 h 2.15905 1.79922 l 1.79921,-0.359843 h 1.79921 l 1.79921,-0.359842 h 1.79922 1.79921 l 1.79921,-0.359843 h 1.79921 l 1.79922,-0.359842 h 1.79921 1.79921 l 1.79921,-0.359843 h 1.79922 1.79921 l 1.79921,-0.359842 h 1.79922 1.79921 l 1.79921,-0.359843 h 1.79921 1.79922 l 1.79921,-0.359842 h 1.79921 1.79921 l 1.79922,-0.359843 h 1.79921 1.79921 l 1.79921,-0.359842 h 1.79922 1.79921 1.79921 l 1.79921,-0.359843 h 1.79922 1.79921 l 1.79921,-0.359842 h 1.79921 1.79922 1.79921 l 1.79921,-0.359843 h 1.79921 1.79922 l 1.79921,-0.359843 h 1.79921 2.15906 1.79921 l 1.79921,-0.359842 h 1.79922 1.79921 1.79921 l 1.79921,-0.359843 h 1.79922 1.79921 1.79921 1.79921 l 1.79922,-0.359842 h 1.79921 1.79921 1.79921 l 1.79922,-0.359843 h 1.79921 1.79921 1.79921 1.79922 l 1.79921,-0.359842 h 1.79921 1.79921 1.79922 l 1.79921,-0.359843 h 1.79921 1.79922 1.79921 1.79921 l 1.79921,-0.359842 h 1.79922 1.79921 1.79921 1.79921 1.79922 l 1.79921,-0.359843 h 1.79921 1.79921 1.79922 1.79921 l 1.79921,-0.359842 h 1.79921 1.79922 1.79921 2.15905 1.79922 l 1.79921,-0.359843 h 1.79921 1.79922 1.79921 1.79921 1.79921 l 1.79922,-0.359842 h 1.79921 1.79921 1.79921 1.79922 1.79921 1.79921 l 1.79921,-0.359843 h 1.79922 1.79921 1.79921 1.79921 1.79922 l 1.79921,-0.359842 h 1.79921 1.79921 1.79922 1.79921 1.79921 1.79921 1.79922 L 594.1,22.310236 h 1.79921 1.79922 1.79921 1.79921 1.79921 1.79922 l 1.79921,-0.359842 h 1.79921 1.79921 1.79922 1.79921 1.79921 1.79921 1.79922 l 1.79921,-0.359843 h 2.15905 1.79922 1.79921 1.79921 1.79921 1.79922 1.79921 1.79921 l 1.79921,-0.359842 h 1.79922 1.79921 1.79921 1.79922 1.79921 1.79921 1.79921 1.79922 1.79921 l 1.79921,-0.359843 h 1.79921 1.79922 1.79921 1.79921 1.79921 1.79922 1.79921 1.79921 1.79921 l 1.79922,-0.359842 h 1.79921 1.79921 1.79921 1.79922 1.79921 1.79921 1.79922 1.79921 1.79921 1.79921 l 1.79922,-0.359843 h 1.79921 1.79921 1.79921 2.15906 1.79921 1.79921 1.79922 1.79921 1.79921 1.79921 l 1.79922,-0.359842 h 1.79921 1.79921 1.79921 1.79922 1.79921 1.79921 1.79921 1.79922 1.79921 1.79921 1.79922 1.79921 l 1.79921,-0.359843 h 1.79921 1.79922 1.79921 1.79921 1.79921 1.79922 1.79921 1.79921 1.79921 1.79922 1.79921 1.79921 1.79921 l 1.79922,-0.359842 h 1.79921 1.79921 1.79921 1.79922 1.79921 1.79921 1.79921 1.79922 1.79921 2.15906 1.79921 1.79921 1.79921 1.79922 1.79921 l 1.79921,-0.359843 h 1.79921 1.79922 1.79921 1.79921 1.79921 1.79922 1.79921 1.79921 1.79921 1.79922 1.79921 1.79921 1.79921 1.79922 1.79921 1.79921"
     id="path263" />
</svg>
