<?xml version="1.0" encoding="UTF-8" standalone="no"?>
<svg
   version="1.0"
   width="156.41mm"
   height="70.160004mm"
   id="svg383"
   sodipodi:docname="pv-panel-mpp.svg"
   inkscape:version="1.2.2 (732a01da63, 2022-12-09)"
   xmlns:inkscape="http://www.inkscape.org/namespaces/inkscape"
   xmlns:sodipodi="http://sodipodi.sourceforge.net/DTD/sodipodi-0.dtd"
   xmlns="http://www.w3.org/2000/svg"
   xmlns:svg="http://www.w3.org/2000/svg">
  <sodipodi:namedview
     id="namedview385"
     pagecolor="#ffffff"
     bordercolor="#666666"
     borderopacity="1.0"
     inkscape:showpageshadow="2"
     inkscape:pageopacity="0.0"
     inkscape:pagecheckerboard="0"
     inkscape:deskcolor="#d1d1d1"
     inkscape:document-units="mm"
     showgrid="false"
     inkscape:zoom="2.1401231"
     inkscape:cx="377.08111"
     inkscape:cy="26.400351"
     inkscape:window-width="1440"
     inkscape:window-height="890"
     inkscape:window-x="-6"
     inkscape:window-y="-6"
     inkscape:window-maximized="1"
     inkscape:current-layer="svg383" />
  <defs
     id="defs133">
    <marker
       style="overflow:visible"
       id="TriangleStart"
       refX="0"
       refY="0"
       orient="auto-start-reverse"
       inkscape:stockid="TriangleStart"
       markerWidth="5.3244081"
       markerHeight="6.155385"
       viewBox="0 0 5.3244081 6.1553851"
       inkscape:isstock="true"
       inkscape:collect="always"
       preserveAspectRatio="xMidYMid">
      <path
         transform="scale(0.5)"
         style="fill:context-stroke;fill-rule:evenodd;stroke:context-stroke;stroke-width:1pt"
         d="M 5.77,0 -2.88,5 V -5 Z"
         id="path135" />
    </marker>
  </defs>
  <text
     xml:space="preserve"
     style="font-style:normal;font-variant:normal;font-weight:700;font-size:9.6875px;line-height:125%;font-family:Arial;text-align:start;letter-spacing:0px;word-spacing:0px;text-anchor:start;fill:#000000;fill-opacity:1;stroke:none"
     x="297.25476"
     y="261.37927"
     id="text139"><tspan
       sodipodi:role="line"
       x="297.25476"
       y="261.37927"
       id="tspan137"><tspan
         dx="0"
         dy="0"
         style="font-style:normal;font-variant:normal;font-weight:700;font-size:9.6875px;font-family:Arial;fill:#000000"
         id="tspan135">I(I1)</tspan></tspan></text>
  <path
     style="fill:none;stroke:#000000;stroke-width:0.359843px;stroke-linecap:round;stroke-linejoin:round;stroke-miterlimit:4;stroke-dasharray:none;stroke-opacity:1"
     d="m 30.946457,235.33701 v 5.75748"
     id="path141" />
  <text
     xml:space="preserve"
     style="font-style:normal;font-variant:normal;font-weight:700;font-size:9.6875px;line-height:125%;font-family:Arial;text-align:start;letter-spacing:0px;word-spacing:0px;text-anchor:start;fill:#000000;fill-opacity:1;stroke:none"
     x="20.559095"
     y="249.86432"
     id="text147"><tspan
       sodipodi:role="line"
       x="20.559095"
       y="249.86432"
       id="tspan145"><tspan
         dx="0"
         dy="0"
         style="font-style:normal;font-variant:normal;font-weight:700;font-size:9.6875px;font-family:Arial;fill:#000000"
         id="tspan143">5.7A</tspan></tspan></text>
  <path
     style="fill:none;stroke:#000000;stroke-width:0.359843px;stroke-linecap:round;stroke-linejoin:round;stroke-miterlimit:4;stroke-dasharray:none;stroke-opacity:1"
     d="m 80.964567,235.33701 v 5.75748"
     id="path149" />
  <text
     xml:space="preserve"
     style="font-style:normal;font-variant:normal;font-weight:700;font-size:9.6875px;line-height:125%;font-family:Arial;text-align:start;letter-spacing:0px;word-spacing:0px;text-anchor:start;fill:#000000;fill-opacity:1;stroke:none"
     x="70.577202"
     y="249.86432"
     id="text155"><tspan
       sodipodi:role="line"
       x="70.577202"
       y="249.86432"
       id="tspan153"><tspan
         dx="0"
         dy="0"
         style="font-style:normal;font-variant:normal;font-weight:700;font-size:9.6875px;font-family:Arial;fill:#000000"
         id="tspan151">6.0A</tspan></tspan></text>
  <path
     style="fill:none;stroke:#808080;stroke-width:0.359843px;stroke-linecap:round;stroke-linejoin:round;stroke-miterlimit:4;stroke-dasharray:1, 1;stroke-dashoffset:0;stroke-opacity:1"
     d="M 80.964567,235.33701 V 12.234646"
     id="path157" />
  <path
     style="fill:none;stroke:#000000;stroke-width:0.359843px;stroke-linecap:round;stroke-linejoin:round;stroke-miterlimit:4;stroke-dasharray:none;stroke-opacity:1"
     d="m 130.98268,235.33701 v 5.75748"
     id="path159" />
  <text
     xml:space="preserve"
     style="font-style:normal;font-variant:normal;font-weight:700;font-size:9.6875px;line-height:125%;font-family:Arial;text-align:start;letter-spacing:0px;word-spacing:0px;text-anchor:start;fill:#000000;fill-opacity:1;stroke:none"
     x="120.59532"
     y="249.86432"
     id="text165"><tspan
       sodipodi:role="line"
       x="120.59532"
       y="249.86432"
       id="tspan163"><tspan
         dx="0"
         dy="0"
         style="font-style:normal;font-variant:normal;font-weight:700;font-size:9.6875px;font-family:Arial;fill:#000000"
         id="tspan161">6.3A</tspan></tspan></text>
  <path
     style="fill:none;stroke:#808080;stroke-width:0.359843px;stroke-linecap:round;stroke-linejoin:round;stroke-miterlimit:4;stroke-dasharray:1, 1;stroke-dashoffset:0;stroke-opacity:1"
     d="M 130.98268,235.33701 V 12.234646"
     id="path167" />
  <path
     style="fill:none;stroke:#000000;stroke-width:0.359843px;stroke-linecap:round;stroke-linejoin:round;stroke-miterlimit:4;stroke-dasharray:none;stroke-opacity:1"
     d="m 181.00079,235.33701 v 5.75748"
     id="path169" />
  <text
     xml:space="preserve"
     style="font-style:normal;font-variant:normal;font-weight:700;font-size:9.6875px;line-height:125%;font-family:Arial;text-align:start;letter-spacing:0px;word-spacing:0px;text-anchor:start;fill:#000000;fill-opacity:1;stroke:none"
     x="170.61343"
     y="249.86432"
     id="text175"><tspan
       sodipodi:role="line"
       x="170.61343"
       y="249.86432"
       id="tspan173"><tspan
         dx="0"
         dy="0"
         style="font-style:normal;font-variant:normal;font-weight:700;font-size:9.6875px;font-family:Arial;fill:#000000"
         id="tspan171">6.6A</tspan></tspan></text>
  <path
     style="fill:none;stroke:#808080;stroke-width:0.359843px;stroke-linecap:round;stroke-linejoin:round;stroke-miterlimit:4;stroke-dasharray:1, 1;stroke-dashoffset:0;stroke-opacity:1"
     d="M 181.00079,235.33701 V 12.234646"
     id="path177" />
  <path
     style="fill:none;stroke:#000000;stroke-width:0.359843px;stroke-linecap:round;stroke-linejoin:round;stroke-miterlimit:4;stroke-dasharray:none;stroke-opacity:1"
     d="m 231.0189,235.33701 v 5.75748"
     id="path179" />
  <text
     xml:space="preserve"
     style="font-style:normal;font-variant:normal;font-weight:700;font-size:9.6875px;line-height:125%;font-family:Arial;text-align:start;letter-spacing:0px;word-spacing:0px;text-anchor:start;fill:#000000;fill-opacity:1;stroke:none"
     x="220.63153"
     y="249.86432"
     id="text185"><tspan
       sodipodi:role="line"
       x="220.63153"
       y="249.86432"
       id="tspan183"><tspan
         dx="0"
         dy="0"
         style="font-style:normal;font-variant:normal;font-weight:700;font-size:9.6875px;font-family:Arial;fill:#000000"
         id="tspan181">6.9A</tspan></tspan></text>
  <path
     style="fill:none;stroke:#808080;stroke-width:0.359843px;stroke-linecap:round;stroke-linejoin:round;stroke-miterlimit:4;stroke-dasharray:1, 1;stroke-dashoffset:0;stroke-opacity:1"
     d="M 231.0189,235.33701 V 12.234646"
     id="path187" />
  <path
     style="fill:none;stroke:#000000;stroke-width:0.359843px;stroke-linecap:round;stroke-linejoin:round;stroke-miterlimit:4;stroke-dasharray:none;stroke-opacity:1"
     d="m 281.03701,235.33701 v 5.75748"
     id="path189" />
  <text
     xml:space="preserve"
     style="font-style:normal;font-variant:normal;font-weight:700;font-size:9.6875px;line-height:125%;font-family:Arial;text-align:start;letter-spacing:0px;word-spacing:0px;text-anchor:start;fill:#000000;fill-opacity:1;stroke:none"
     x="270.64966"
     y="249.86432"
     id="text195"><tspan
       sodipodi:role="line"
       x="270.64966"
       y="249.86432"
       id="tspan193"><tspan
         dx="0"
         dy="0"
         style="font-style:normal;font-variant:normal;font-weight:700;font-size:9.6875px;font-family:Arial;fill:#000000"
         id="tspan191">7.2A</tspan></tspan></text>
  <path
     style="fill:none;stroke:#808080;stroke-width:0.359843px;stroke-linecap:round;stroke-linejoin:round;stroke-miterlimit:4;stroke-dasharray:1, 1;stroke-dashoffset:0;stroke-opacity:1"
     d="M 281.03701,235.33701 V 12.234646"
     id="path197" />
  <path
     style="fill:none;stroke:#000000;stroke-width:0.359843px;stroke-linecap:round;stroke-linejoin:round;stroke-miterlimit:4;stroke-dasharray:none;stroke-opacity:1"
     d="m 331.05512,235.33701 v 5.75748"
     id="path199" />
  <text
     xml:space="preserve"
     style="font-style:normal;font-variant:normal;font-weight:700;font-size:9.6875px;line-height:125%;font-family:Arial;text-align:start;letter-spacing:0px;word-spacing:0px;text-anchor:start;fill:#000000;fill-opacity:1;stroke:none"
     x="320.66776"
     y="249.86432"
     id="text205"><tspan
       sodipodi:role="line"
       x="320.66776"
       y="249.86432"
       id="tspan203"><tspan
         dx="0"
         dy="0"
         style="font-style:normal;font-variant:normal;font-weight:700;font-size:9.6875px;font-family:Arial;fill:#000000"
         id="tspan201">7.5A</tspan></tspan></text>
  <path
     style="fill:none;stroke:#808080;stroke-width:0.359843px;stroke-linecap:round;stroke-linejoin:round;stroke-miterlimit:4;stroke-dasharray:1, 1;stroke-dashoffset:0;stroke-opacity:1"
     d="M 331.05512,235.33701 V 12.234646"
     id="path207" />
  <path
     style="fill:none;stroke:#000000;stroke-width:0.359843px;stroke-linecap:round;stroke-linejoin:round;stroke-miterlimit:4;stroke-dasharray:none;stroke-opacity:1"
     d="m 381.07323,235.33701 v 5.75748"
     id="path209" />
  <text
     xml:space="preserve"
     style="font-style:normal;font-variant:normal;font-weight:700;font-size:9.6875px;line-height:125%;font-family:Arial;text-align:start;letter-spacing:0px;word-spacing:0px;text-anchor:start;fill:#000000;fill-opacity:1;stroke:none"
     x="370.68588"
     y="249.86432"
     id="text215"><tspan
       sodipodi:role="line"
       x="370.68588"
       y="249.86432"
       id="tspan213"><tspan
         dx="0"
         dy="0"
         style="font-style:normal;font-variant:normal;font-weight:700;font-size:9.6875px;font-family:Arial;fill:#000000"
         id="tspan211">7.8A</tspan></tspan></text>
  <path
     style="fill:none;stroke:#808080;stroke-width:0.359843px;stroke-linecap:round;stroke-linejoin:round;stroke-miterlimit:4;stroke-dasharray:1, 1;stroke-dashoffset:0;stroke-opacity:1"
     d="M 381.07323,235.33701 V 12.234646"
     id="path217" />
  <path
     style="fill:none;stroke:#000000;stroke-width:0.359843px;stroke-linecap:round;stroke-linejoin:round;stroke-miterlimit:4;stroke-dasharray:none;stroke-opacity:1"
     d="m 431.09134,235.33701 v 5.75748"
     id="path219" />
  <text
     xml:space="preserve"
     style="font-style:normal;font-variant:normal;font-weight:700;font-size:9.6875px;line-height:125%;font-family:Arial;text-align:start;letter-spacing:0px;word-spacing:0px;text-anchor:start;fill:#000000;fill-opacity:1;stroke:none"
     x="420.70398"
     y="249.86432"
     id="text225"><tspan
       sodipodi:role="line"
       x="420.70398"
       y="249.86432"
       id="tspan223"><tspan
         dx="0"
         dy="0"
         style="font-style:normal;font-variant:normal;font-weight:700;font-size:9.6875px;font-family:Arial;fill:#000000"
         id="tspan221">8.1A</tspan></tspan></text>
  <path
     style="fill:none;stroke:#808080;stroke-width:0.359843px;stroke-linecap:round;stroke-linejoin:round;stroke-miterlimit:4;stroke-dasharray:1, 1;stroke-dashoffset:0;stroke-opacity:1"
     d="M 431.09134,235.33701 V 12.234646"
     id="path227" />
  <path
     style="fill:none;stroke:#000000;stroke-width:0.359843px;stroke-linecap:round;stroke-linejoin:round;stroke-miterlimit:4;stroke-dasharray:none;stroke-opacity:1"
     d="m 481.10945,235.33701 v 5.75748"
     id="path229" />
  <text
     xml:space="preserve"
     style="font-style:normal;font-variant:normal;font-weight:700;font-size:9.6875px;line-height:125%;font-family:Arial;text-align:start;letter-spacing:0px;word-spacing:0px;text-anchor:start;fill:#000000;fill-opacity:1;stroke:none"
     x="470.72208"
     y="249.86432"
     id="text235"><tspan
       sodipodi:role="line"
       x="470.72208"
       y="249.86432"
       id="tspan233"><tspan
         dx="0"
         dy="0"
         style="font-style:normal;font-variant:normal;font-weight:700;font-size:9.6875px;font-family:Arial;fill:#000000"
         id="tspan231">8.4A</tspan></tspan></text>
  <path
     style="fill:none;stroke:#808080;stroke-width:0.359843px;stroke-linecap:round;stroke-linejoin:round;stroke-miterlimit:4;stroke-dasharray:1, 1;stroke-dashoffset:0;stroke-opacity:1"
     d="M 481.10945,235.33701 V 12.234646"
     id="path237" />
  <path
     style="fill:none;stroke:#000000;stroke-width:0.359843px;stroke-linecap:round;stroke-linejoin:round;stroke-miterlimit:4;stroke-dasharray:none;stroke-opacity:1"
     d="m 531.12756,235.33701 v 5.75748"
     id="path239" />
  <text
     xml:space="preserve"
     style="font-style:normal;font-variant:normal;font-weight:700;font-size:9.6875px;line-height:125%;font-family:Arial;text-align:start;letter-spacing:0px;word-spacing:0px;text-anchor:start;fill:#000000;fill-opacity:1;stroke:none"
     x="520.74017"
     y="249.86432"
     id="text245"><tspan
       sodipodi:role="line"
       x="520.74017"
       y="249.86432"
       id="tspan243"><tspan
         dx="0"
         dy="0"
         style="font-style:normal;font-variant:normal;font-weight:700;font-size:9.6875px;font-family:Arial;fill:#000000"
         id="tspan241">8.7A</tspan></tspan></text>
  <path
     style="fill:none;stroke:#808080;stroke-width:0.359843px;stroke-linecap:round;stroke-linejoin:round;stroke-miterlimit:4;stroke-dasharray:1, 1;stroke-dashoffset:0;stroke-opacity:1"
     d="M 531.12756,235.33701 V 12.234646"
     id="path247" />
  <path
     style="fill:none;stroke:#000000;stroke-width:0.359843px;stroke-linecap:round;stroke-linejoin:round;stroke-miterlimit:4;stroke-dasharray:none;stroke-opacity:1"
     d="m 581.14567,235.33701 v 5.75748"
     id="path249" />
  <text
     xml:space="preserve"
     style="font-style:normal;font-variant:normal;font-weight:700;font-size:9.6875px;line-height:125%;font-family:Arial;text-align:start;letter-spacing:0px;word-spacing:0px;text-anchor:start;fill:#000000;fill-opacity:1;stroke:none"
     x="570.7583"
     y="249.86432"
     id="text255"><tspan
       sodipodi:role="line"
       x="570.7583"
       y="249.86432"
       id="tspan253"><tspan
         dx="0"
         dy="0"
         style="font-style:normal;font-variant:normal;font-weight:700;font-size:9.6875px;font-family:Arial;fill:#000000"
         id="tspan251">9.0A</tspan></tspan></text>
  <text
     xml:space="preserve"
     style="font-style:normal;font-variant:normal;font-weight:700;font-size:9.6875px;line-height:125%;font-family:Arial;text-align:start;letter-spacing:0px;word-spacing:0px;text-anchor:start;fill:#000000;fill-opacity:1;stroke:none"
     x="-0.11772926"
     y="238.34937"
     id="text261"><tspan
       sodipodi:role="line"
       x="-0.11772926"
       y="238.34937"
       id="tspan259"><tspan
         dx="0"
         dy="0"
         style="font-style:normal;font-variant:normal;font-weight:700;font-size:9.6875px;font-family:Arial;fill:#000000"
         id="tspan257">100W</tspan></tspan></text>
  <path
     style="fill:none;stroke:#000000;stroke-width:0.359843px;stroke-linecap:round;stroke-linejoin:round;stroke-miterlimit:4;stroke-dasharray:none;stroke-opacity:1"
     d="M 30.946457,235.33701 H 25.188976"
     id="path263" />
  <text
     xml:space="preserve"
     style="font-style:normal;font-variant:normal;font-weight:700;font-size:9.6875px;line-height:125%;font-family:Arial;text-align:start;letter-spacing:0px;word-spacing:0px;text-anchor:start;fill:#000000;fill-opacity:1;stroke:none"
     x="-0.11772566"
     y="218.19818"
     id="text269"><tspan
       sodipodi:role="line"
       x="-0.11772566"
       y="218.19818"
       id="tspan267"><tspan
         dx="0"
         dy="0"
         style="font-style:normal;font-variant:normal;font-weight:700;font-size:9.6875px;font-family:Arial;fill:#000000"
         id="tspan265">120W</tspan></tspan></text>
  <path
     style="fill:none;stroke:#000000;stroke-width:0.359843px;stroke-linecap:round;stroke-linejoin:round;stroke-miterlimit:4;stroke-dasharray:none;stroke-opacity:1"
     d="M 30.946457,215.18583 H 25.188976"
     id="path271" />
  <path
     style="fill:none;stroke:#808080;stroke-width:0.359843px;stroke-linecap:round;stroke-linejoin:round;stroke-miterlimit:4;stroke-dasharray:1, 1;stroke-dashoffset:0;stroke-opacity:1"
     d="M 30.946457,215.18583 H 581.14567"
     id="path273" />
  <text
     xml:space="preserve"
     style="font-style:normal;font-variant:normal;font-weight:700;font-size:9.6875px;line-height:125%;font-family:Arial;text-align:start;letter-spacing:0px;word-spacing:0px;text-anchor:start;fill:#000000;fill-opacity:1;stroke:none"
     x="-0.11772566"
     y="197.68715"
     id="text279"><tspan
       sodipodi:role="line"
       x="-0.11772566"
       y="197.68715"
       id="tspan277"><tspan
         dx="0"
         dy="0"
         style="font-style:normal;font-variant:normal;font-weight:700;font-size:9.6875px;font-family:Arial;fill:#000000"
         id="tspan275">140W</tspan></tspan></text>
  <path
     style="fill:none;stroke:#000000;stroke-width:0.359843px;stroke-linecap:round;stroke-linejoin:round;stroke-miterlimit:4;stroke-dasharray:none;stroke-opacity:1"
     d="M 30.946457,194.6748 H 25.188976"
     id="path281" />
  <path
     style="fill:none;stroke:#808080;stroke-width:0.359843px;stroke-linecap:round;stroke-linejoin:round;stroke-miterlimit:4;stroke-dasharray:1, 1;stroke-dashoffset:0;stroke-opacity:1"
     d="M 30.946457,194.6748 H 581.14567"
     id="path283" />
  <text
     xml:space="preserve"
     style="font-style:normal;font-variant:normal;font-weight:700;font-size:9.6875px;line-height:125%;font-family:Arial;text-align:start;letter-spacing:0px;word-spacing:0px;text-anchor:start;fill:#000000;fill-opacity:1;stroke:none"
     x="-0.11772566"
     y="177.53598"
     id="text289"><tspan
       sodipodi:role="line"
       x="-0.11772566"
       y="177.53598"
       id="tspan287"><tspan
         dx="0"
         dy="0"
         style="font-style:normal;font-variant:normal;font-weight:700;font-size:9.6875px;font-family:Arial;fill:#000000"
         id="tspan285">160W</tspan></tspan></text>
  <path
     style="fill:none;stroke:#000000;stroke-width:0.359843px;stroke-linecap:round;stroke-linejoin:round;stroke-miterlimit:4;stroke-dasharray:none;stroke-opacity:1"
     d="M 30.946457,174.52362 H 25.188976"
     id="path291" />
  <path
     style="fill:none;stroke:#808080;stroke-width:0.359843px;stroke-linecap:round;stroke-linejoin:round;stroke-miterlimit:4;stroke-dasharray:1, 1;stroke-dashoffset:0;stroke-opacity:1"
     d="M 30.946457,174.52362 H 581.14567"
     id="path293" />
  <text
     xml:space="preserve"
     style="font-style:normal;font-variant:normal;font-weight:700;font-size:9.6875px;line-height:125%;font-family:Arial;text-align:start;letter-spacing:0px;word-spacing:0px;text-anchor:start;fill:#000000;fill-opacity:1;stroke:none"
     x="-0.11772566"
     y="157.3848"
     id="text299"><tspan
       sodipodi:role="line"
       x="-0.11772566"
       y="157.3848"
       id="tspan297"><tspan
         dx="0"
         dy="0"
         style="font-style:normal;font-variant:normal;font-weight:700;font-size:9.6875px;font-family:Arial;fill:#000000"
         id="tspan295">180W</tspan></tspan></text>
  <path
     style="fill:none;stroke:#000000;stroke-width:0.359843px;stroke-linecap:round;stroke-linejoin:round;stroke-miterlimit:4;stroke-dasharray:none;stroke-opacity:1"
     d="M 30.946457,154.37244 H 25.188976"
     id="path301" />
  <path
     style="fill:none;stroke:#808080;stroke-width:0.359843px;stroke-linecap:round;stroke-linejoin:round;stroke-miterlimit:4;stroke-dasharray:1, 1;stroke-dashoffset:0;stroke-opacity:1"
     d="M 30.946457,154.37244 H 581.14567"
     id="path303" />
  <text
     xml:space="preserve"
     style="font-style:normal;font-variant:normal;font-weight:700;font-size:9.6875px;line-height:125%;font-family:Arial;text-align:start;letter-spacing:0px;word-spacing:0px;text-anchor:start;fill:#000000;fill-opacity:1;stroke:none"
     x="-0.11772566"
     y="136.87378"
     id="text309"><tspan
       sodipodi:role="line"
       x="-0.11772566"
       y="136.87378"
       id="tspan307"><tspan
         dx="0"
         dy="0"
         style="font-style:normal;font-variant:normal;font-weight:700;font-size:9.6875px;font-family:Arial;fill:#000000"
         id="tspan305">200W</tspan></tspan></text>
  <path
     style="fill:none;stroke:#000000;stroke-width:0.359843px;stroke-linecap:round;stroke-linejoin:round;stroke-miterlimit:4;stroke-dasharray:none;stroke-opacity:1"
     d="M 30.946457,133.86142 H 25.188976"
     id="path311" />
  <path
     style="fill:none;stroke:#808080;stroke-width:0.359843px;stroke-linecap:round;stroke-linejoin:round;stroke-miterlimit:4;stroke-dasharray:1, 1;stroke-dashoffset:0;stroke-opacity:1"
     d="M 30.946457,133.86142 H 581.14567"
     id="path313" />
  <text
     xml:space="preserve"
     style="font-style:normal;font-variant:normal;font-weight:700;font-size:9.6875px;line-height:125%;font-family:Arial;text-align:start;letter-spacing:0px;word-spacing:0px;text-anchor:start;fill:#000000;fill-opacity:1;stroke:none"
     x="-0.11772566"
     y="116.7226"
     id="text319"><tspan
       sodipodi:role="line"
       x="-0.11772566"
       y="116.7226"
       id="tspan317"><tspan
         dx="0"
         dy="0"
         style="font-style:normal;font-variant:normal;font-weight:700;font-size:9.6875px;font-family:Arial;fill:#000000"
         id="tspan315">220W</tspan></tspan></text>
  <path
     style="fill:none;stroke:#000000;stroke-width:0.359843px;stroke-linecap:round;stroke-linejoin:round;stroke-miterlimit:4;stroke-dasharray:none;stroke-opacity:1"
     d="M 30.946457,113.71024 H 25.188976"
     id="path321" />
  <path
     style="fill:none;stroke:#808080;stroke-width:0.359843px;stroke-linecap:round;stroke-linejoin:round;stroke-miterlimit:4;stroke-dasharray:1, 1;stroke-dashoffset:0;stroke-opacity:1"
     d="M 30.946457,113.71024 H 581.14567"
     id="path323" />
  <text
     xml:space="preserve"
     style="font-style:normal;font-variant:normal;font-weight:700;font-size:9.6875px;line-height:125%;font-family:Arial;text-align:start;letter-spacing:0px;word-spacing:0px;text-anchor:start;fill:#000000;fill-opacity:1;stroke:none"
     x="-0.11772566"
     y="96.211571"
     id="text329"><tspan
       sodipodi:role="line"
       x="-0.11772566"
       y="96.211571"
       id="tspan327"><tspan
         dx="0"
         dy="0"
         style="font-style:normal;font-variant:normal;font-weight:700;font-size:9.6875px;font-family:Arial;fill:#000000"
         id="tspan325">240W</tspan></tspan></text>
  <path
     style="fill:none;stroke:#000000;stroke-width:0.359843px;stroke-linecap:round;stroke-linejoin:round;stroke-miterlimit:4;stroke-dasharray:none;stroke-opacity:1"
     d="M 30.946457,93.199213 H 25.188976"
     id="path331" />
  <path
     style="fill:none;stroke:#808080;stroke-width:0.359843px;stroke-linecap:round;stroke-linejoin:round;stroke-miterlimit:4;stroke-dasharray:1, 1;stroke-dashoffset:0;stroke-opacity:1"
     d="M 30.946457,93.199213 H 581.14567"
     id="path333" />
  <text
     xml:space="preserve"
     style="font-style:normal;font-variant:normal;font-weight:700;font-size:9.6875px;line-height:125%;font-family:Arial;text-align:start;letter-spacing:0px;word-spacing:0px;text-anchor:start;fill:#000000;fill-opacity:1;stroke:none"
     x="-0.11772566"
     y="76.060387"
     id="text339"><tspan
       sodipodi:role="line"
       x="-0.11772566"
       y="76.060387"
       id="tspan337"><tspan
         dx="0"
         dy="0"
         style="font-style:normal;font-variant:normal;font-weight:700;font-size:9.6875px;font-family:Arial;fill:#000000"
         id="tspan335">260W</tspan></tspan></text>
  <path
     style="fill:none;stroke:#000000;stroke-width:0.359843px;stroke-linecap:round;stroke-linejoin:round;stroke-miterlimit:4;stroke-dasharray:none;stroke-opacity:1"
     d="M 30.946457,73.048031 H 25.188976"
     id="path341" />
  <path
     style="fill:none;stroke:#808080;stroke-width:0.359843px;stroke-linecap:round;stroke-linejoin:round;stroke-miterlimit:4;stroke-dasharray:1, 1;stroke-dashoffset:0;stroke-opacity:1"
     d="M 30.946457,73.048031 H 581.14567"
     id="path343" />
  <text
     xml:space="preserve"
     style="font-style:normal;font-variant:normal;font-weight:700;font-size:9.6875px;line-height:125%;font-family:Arial;text-align:start;letter-spacing:0px;word-spacing:0px;text-anchor:start;fill:#000000;fill-opacity:1;stroke:none"
     x="-0.11772566"
     y="55.909206"
     id="text349"><tspan
       sodipodi:role="line"
       x="-0.11772566"
       y="55.909206"
       id="tspan347"><tspan
         dx="0"
         dy="0"
         style="font-style:normal;font-variant:normal;font-weight:700;font-size:9.6875px;font-family:Arial;fill:#000000"
         id="tspan345">280W</tspan></tspan></text>
  <path
     style="fill:none;stroke:#000000;stroke-width:0.359843px;stroke-linecap:round;stroke-linejoin:round;stroke-miterlimit:4;stroke-dasharray:none;stroke-opacity:1"
     d="M 30.946457,52.89685 H 25.188976"
     id="path351" />
  <path
     style="fill:none;stroke:#808080;stroke-width:0.359843px;stroke-linecap:round;stroke-linejoin:round;stroke-miterlimit:4;stroke-dasharray:1, 1;stroke-dashoffset:0;stroke-opacity:1"
     d="M 30.946457,52.89685 H 581.14567"
     id="path353" />
  <text
     xml:space="preserve"
     style="font-style:normal;font-variant:normal;font-weight:700;font-size:9.6875px;line-height:125%;font-family:Arial;text-align:start;letter-spacing:0px;word-spacing:0px;text-anchor:start;fill:#000000;fill-opacity:1;stroke:none"
     x="-0.11772566"
     y="35.398182"
     id="text359"><tspan
       sodipodi:role="line"
       x="-0.11772566"
       y="35.398182"
       id="tspan357"><tspan
         dx="0"
         dy="0"
         style="font-style:normal;font-variant:normal;font-weight:700;font-size:9.6875px;font-family:Arial;fill:#000000"
         id="tspan355">300W</tspan></tspan></text>
  <path
     style="fill:none;stroke:#000000;stroke-width:0.359843px;stroke-linecap:round;stroke-linejoin:round;stroke-miterlimit:4;stroke-dasharray:none;stroke-opacity:1"
     d="M 30.946457,32.385827 H 25.188976"
     id="path361" />
  <path
     style="fill:none;stroke:#808080;stroke-width:0.359843px;stroke-linecap:round;stroke-linejoin:round;stroke-miterlimit:4;stroke-dasharray:1, 1;stroke-dashoffset:0;stroke-opacity:1"
     d="M 30.946457,32.385827 H 581.14567"
     id="path363" />
  <text
     xml:space="preserve"
     style="font-style:normal;font-variant:normal;font-weight:700;font-size:9.6875px;line-height:125%;font-family:Arial;text-align:start;letter-spacing:0px;word-spacing:0px;text-anchor:start;fill:#000000;fill-opacity:1;stroke:none"
     x="-0.11772566"
     y="15.247002"
     id="text369"><tspan
       sodipodi:role="line"
       x="-0.11772566"
       y="15.247002"
       id="tspan367"><tspan
         dx="0"
         dy="0"
         style="font-style:normal;font-variant:normal;font-weight:700;font-size:9.6875px;font-family:Arial;fill:#000000"
         id="tspan365">320W</tspan></tspan></text>
  <path
     style="fill:none;stroke:#000000;stroke-width:0.359843px;stroke-linecap:round;stroke-linejoin:round;stroke-miterlimit:4;stroke-dasharray:none;stroke-opacity:1"
     d="M 30.946457,12.234646 H 25.188976"
     id="path371" />
  <path
     style="fill:none;stroke:#000000;stroke-width:0.359843px;stroke-linecap:round;stroke-linejoin:round;stroke-miterlimit:4;stroke-dasharray:none;stroke-opacity:1"
     d="M 30.946457,12.234646 H 581.14567 V 235.33701 H 30.946457 V 12.234646"
     id="path373" />
  <text
     xml:space="preserve"
     style="font-style:normal;font-variant:normal;font-weight:700;font-size:9.6875px;line-height:125%;font-family:Arial;text-align:start;letter-spacing:0px;word-spacing:0px;text-anchor:start;fill:#00ff00;fill-opacity:1;stroke:none"
     x="280.56653"
     y="8.7698364"
     id="text379"><tspan
       sodipodi:role="line"
       x="280.56653"
       y="8.7698364"
       id="tspan377"><tspan
         dx="0"
         dy="0"
         style="font-style:normal;font-variant:normal;font-weight:700;font-size:9.6875px;font-family:Arial;fill:#00ff00"
         id="tspan375">V(pv1)*I(I1)</tspan></tspan></text>
  <path
     style="fill:none;stroke:#00ff00;stroke-width:0.359843px;stroke-linecap:round;stroke-linejoin:round;stroke-miterlimit:4;stroke-dasharray:none;stroke-opacity:1"
     d="m 69.809449,86.362205 0.719685,-0.359843 h 0.719685 l 1.079527,-0.359842 h 0.719685 0.719686 l 0.719685,-0.359843 h 0.719685 l 0.719685,-0.359842 h 0.719685 l 0.719685,-0.359843 h 0.719685 l 0.719685,-0.359842 h 1.079527 l 0.719685,-0.359843 h 0.719685 l 0.719685,-0.359842 h 1.079528 l 0.719685,-0.359843 h 0.719685 l 0.719685,-0.359842 h 0.719685 l 1.079528,-0.359843 h 1.079527 l 0.719685,-0.359843 h 0.719685 l 1.079528,-0.359842 H 91.4 l 0.719685,-0.359843 1.079528,-0.359842 h 0.719685 0.719685 l 1.079527,-0.359843 0.719685,-0.359842 h 0.719685 0.719685 l 0.719685,-0.359843 h 0.719685 l 0.719685,-0.359842 h 0.71969 l 0.71968,-0.359843 h 0.71969 0.71968 l 1.07953,-0.359842 0.71968,-0.359843 h 0.71969 l 1.07953,-0.359842 h 0.71968 0.71969 l 1.07952,-0.359843 0.71969,-0.359842 h 0.71968 l 0.71969,-0.359843 h 1.07953 l 0.71968,-0.359842 h 1.07953 l 0.71968,-0.359843 h 0.71969 l 1.07953,-0.359842 h 0.71968 l 0.71969,-0.359843 h 0.71968 0.71969 l 0.71968,-0.359842 1.07953,-0.359843 h 1.07953 l 0.71968,-0.359842 h 0.71969 l 0.71968,-0.359843 h 0.71969 0.71968 l 0.71969,-0.359842 h 0.71968 l 0.71969,-0.359843 h 0.71968 l 1.07953,-0.359843 h 0.71968 l 0.71969,-0.359842 h 0.71968 l 1.07953,-0.359843 h 0.71969 l 0.71968,-0.359842 h 0.71969 l 1.07952,-0.359843 H 137.1 l 1.07953,-0.359842 h 0.71968 l 0.71969,-0.359843 h 1.07953 l 0.71968,-0.359842 h 0.71969 l 1.07952,-0.359843 h 0.71969 l 0.71968,-0.359842 h 1.07953 l 0.71969,-0.359843 h 0.71968 l 0.71969,-0.359842 h 0.71968 0.71969 l 0.71968,-0.359843 h 0.71969 l 0.71968,-0.359842 h 0.71969 0.71968 l 1.07953,-0.359843 0.71968,-0.359842 h 0.71969 l 1.07953,-0.359843 h 0.71968 0.71969 l 1.07952,-0.359842 0.71969,-0.359843 h 0.71968 l 1.07953,-0.359842 h 0.71969 0.71968 l 1.07953,-0.359843 h 0.71968 l 0.71969,-0.359842 h 0.71968 l 0.71969,-0.359843 h 1.07953 l 0.71968,-0.359842 h 0.71969 l 1.07952,-0.359843 h 0.71969 l 1.07953,-0.359842 h 0.71968 l 0.71969,-0.359843 h 0.71968 0.71969 l 0.71968,-0.359843 h 0.71969 l 0.71968,-0.359842 h 0.71969 l 0.71968,-0.359843 h 1.07953 l 0.71968,-0.359842 h 0.71969 0.71968 l 1.07953,-0.359843 h 0.71969 l 0.71968,-0.359842 1.07953,-0.359843 h 0.71969 0.71968 l 1.07953,-0.359842 h 0.71968 l 0.71969,-0.359843 h 0.71968 l 0.71969,-0.359842 h 1.07953 l 1.07952,-0.359843 h 0.71969 l 0.71968,-0.359842 h 1.07953 l 0.71969,-0.359843 h 1.07952 l 0.71969,-0.359842 h 0.71968 0.71969 l 0.71968,-0.359843 h 0.71969 l 1.07953,-0.359842 h 0.71968 l 1.07953,-0.359843 h 0.71968 l 0.71969,-0.359842 h 1.07953 l 0.71968,-0.359843 h 0.71969 l 1.07952,-0.359842 h 0.71969 l 0.71968,-0.359843 h 1.07953 l 0.71969,-0.359842 h 0.71968 l 1.07953,-0.359843 h 0.71968 0.71969 l 0.71968,-0.359842 h 1.07953 l 0.71969,-0.359843 h 0.71968 l 1.07953,-0.359843 h 0.71968 l 0.71969,-0.359842 h 0.71968 0.71969 l 0.71968,-0.359843 h 0.71969 l 0.71968,-0.359842 h 0.71969 0.71968 l 1.07953,-0.359843 h 0.71969 l 0.71968,-0.359842 h 1.07953 l 0.71969,-0.359843 h 0.71968 0.71969 l 1.07952,-0.359842 0.71969,-0.359843 h 0.71968 l 1.07953,-0.359842 h 0.71969 0.71968 l 1.07953,-0.359843 h 0.71968 l 0.71969,-0.359842 h 0.71968 l 1.07953,-0.359843 h 0.71969 0.71968 l 1.07953,-0.359842 h 0.71968 l 1.07953,-0.359843 h 0.71969 l 0.71968,-0.359842 h 0.71969 0.71968 l 0.71969,-0.359843 h 0.71968 l 0.71969,-0.359842 h 0.71968 0.71969 l 0.71968,-0.359843 h 1.07953 l 0.71968,-0.359842 h 0.71969 l 1.07953,-0.359843 h 0.71968 0.71969 l 0.71968,-0.359842 h 0.71969 l 1.07952,-0.359843 h 1.07953 l 0.71969,-0.359842 h 0.71968 L 264.12441,45.7 h 0.71968 l 0.71969,-0.359843 h 0.71968 1.07953 l 0.71969,-0.359842 h 0.71968 l 1.07953,-0.359843 h 0.71968 0.71969 l 0.71968,-0.359842 h 0.71969 0.71968 L 274.2,43.900787 h 0.71969 l 0.71968,-0.359842 h 0.71969 l 1.07952,-0.359843 h 0.71969 0.71968 l 1.07953,-0.359842 h 0.71969 l 0.71968,-0.359843 h 0.71969 1.07952 l 0.71969,-0.359842 h 0.71968 l 1.07953,-0.359843 h 0.71969 0.71968 l 1.07953,-0.359842 h 0.71968 l 0.71969,-0.359843 h 1.07953 l 0.71968,-0.359842 h 1.07953 l 0.71968,-0.359843 h 0.71969 0.71968 l 1.07953,-0.359842 h 0.71969 0.71968 l 0.71969,-0.359843 h 0.71968 l 0.71969,-0.359842 h 0.71968 0.71969 l 0.71968,-0.359843 h 0.71969 0.71968 l 1.07953,-0.359842 h 0.71968 0.71969 l 1.07953,-0.359843 h 0.71968 l 0.71969,-0.359842 h 0.71968 l 1.07953,-0.359843 h 0.71968 l 1.07953,-0.359842 h 0.71969 0.71968 l 1.07953,-0.359843 h 0.71968 0.71969 l 0.71968,-0.359843 h 0.71969 l 1.07953,-0.359842 h 0.71968 1.07953 l 0.71969,-0.359843 h 0.71968 0.71969 l 0.71968,-0.359842 h 0.71969 0.71968 l 0.71969,-0.359843 h 0.71968 0.71969 l 1.07952,-0.359842 h 0.71969 0.71968 l 1.07953,-0.359843 h 0.71969 l 0.71968,-0.359842 h 0.71969 0.71968 l 1.07953,-0.359843 h 0.71968 l 1.07953,-0.359842 h 0.71969 0.71968 l 1.07953,-0.359843 h 0.71968 0.71969 l 1.07953,-0.359842 h 0.71968 0.71969 l 1.07952,-0.359843 h 0.71969 l 0.71968,-0.359842 h 1.07953 0.71969 l 0.71968,-0.359843 h 0.71969 0.71968 l 0.71969,-0.359842 h 0.71968 0.71969 0.71968 l 0.71969,-0.359843 h 0.71968 l 1.07953,-0.359842 h 0.71968 0.71969 l 1.07953,-0.359843 h 0.71968 0.71969 l 1.07952,-0.359842 h 0.71969 0.71968 l 1.07953,-0.359843 h 0.71969 0.71968 0.71969 l 0.71968,-0.359842 h 1.07953 0.71969 l 0.71968,-0.359843 h 1.07953 0.71968 l 1.07953,-0.359842 h 0.71969 0.71968 l 0.71969,-0.359843 h 0.71968 0.71969 l 0.71968,-0.359843 h 0.71969 0.71968 0.71969 l 1.07952,-0.359842 h 0.71969 0.71968 l 1.07953,-0.359843 h 0.71969 0.71968 l 1.07953,-0.359842 h 0.71968 0.71969 0.71968 l 1.07953,-0.359843 h 0.71969 0.71968 l 1.07953,-0.359842 h 0.71968 0.71969 l 1.07953,-0.359843 h 0.71968 0.71969 1.07952 l 0.71969,-0.359842 h 1.07953 0.71968 0.71969 l 0.71968,-0.359843 h 0.71969 0.71968 l 1.07953,-0.359842 h 0.71968 1.07953 0.71969 l 0.71968,-0.359843 h 1.07953 0.71968 0.71969 l 1.07953,-0.359842 h 1.07952 0.71969 0.71968 l 0.71969,-0.359843 h 0.71968 1.07953 0.71969 l 0.71968,-0.359842 h 0.71969 1.07953 0.71968 0.71969 l 1.07952,-0.359843 h 0.71969 0.71968 1.07953 l 0.71969,-0.359842 h 0.71968 0.71969 0.71968 0.71969 0.71968 l 0.71969,-0.359843 h 0.71968 0.71969 1.07952 0.71969 l 0.71968,-0.359842 h 1.07953 0.71969 0.71968 1.07953 0.71968 l 0.71969,-0.359843 h 0.71968 1.07953 0.71969 0.71968 0.71969 l 1.07952,-0.359842 h 0.71969 1.07953 0.71968 0.71969 1.07952 0.71969 0.71968 l 0.71969,-0.359843 h 0.71968 0.71969 0.71968 0.71969 0.71968 0.71969 0.71968 1.07953 0.71969 0.71968 l 1.07953,-0.359842 h 0.71968 0.71969 0.71968 0.71969 1.07953 1.07953 0.71968 0.71969 1.07952 0.71969 0.71968 1.07953 0.71969 0.71968 0.71969 1.07952 0.71969 0.71968 0.71969 0.71968 0.71969 0.71968 0.71969 0.71968 0.71969 1.07953 0.71968 l 0.71969,0.359842 h 1.07952 0.71969 0.71968 1.07953 0.71969 0.71968 1.07953 l 0.71968,0.359843 h 0.71969 0.71968 1.07953 0.71969 l 1.07952,0.359842 h 0.71969 0.71968 0.71969 0.71968 l 0.71969,0.359843 h 1.07953 1.07952 l 0.71969,0.359842 h 0.71968 0.71969 0.71968 l 0.71969,0.359843 h 0.71968 0.71969 l 0.71968,0.359842 h 0.71969 0.71968 l 1.07953,0.359843 h 0.71969 l 0.71968,0.359842 1.07953,0.359843 h 0.71969 0.71968 l 0.71969,0.359842 1.07952,0.359843 h 0.71969 l 1.07953,0.359842 0.71968,0.359843 h 0.71969 l 1.07952,0.359842 0.71969,0.359843 h 0.71968 l 1.07953,0.719685 h 0.71969 l 0.71968,0.359842 1.07953,0.359843 0.71968,0.359842 0.71969,0.359843 0.71968,0.359843 0.71969,0.359842 0.71968,0.359843 h 0.71969 l 0.71968,0.719685 h 0.71969 l 0.71968,0.719685 0.71969,0.359842 1.07953,0.719685 0.71968,0.359843 0.71969,0.359842 1.07952,1.079528 0.71969,0.359842 0.71968,0.359843 0.35985,0.719685 0.71968,0.359842 0.71969,0.719685 0.71968,0.359843 0.35984,0.719685 0.71969,0.719685 0.71968,0.359843 0.71969,0.719685 0.71968,0.719685 0.35985,0.719685 0.71968,0.719685 0.71969,1.079527 0.35984,0.719685 1.07953,1.079528 0.35984,0.719685 0.71968,1.079527 0.71969,1.079528 0.35984,0.719685 0.35984,1.079528 0.35985,0.719685 0.71968,1.079527 0.71969,1.43937 0.35984,1.43937 0.71968,1.43937 0.35985,1.439371 0.35984,1.079527 0.35984,0.719685 0.35984,0.719685 v 0.719685 l 0.35985,0.719685 0.35984,0.719685 v 0.719685 l 0.35984,0.719685 v 0.719685 l 0.35984,0.719685 0.35985,1.439371 0.35984,1.43937 v 0.719685 l 0.35984,0.719685 0.35984,2.159055 0.35985,2.159055 0.35984,1.079527 v 0.719686 l 0.71969,3.598425 0.71968,3.958267 0.71969,4.318111 0.35984,4.677952 0.71968,5.037796 0.71969,5.397642 0.71968,5.75748 0.35985,6.11732 0.71968,6.11732 0.71969,6.47717 0.35984,3.95826 0.35984,3.59843 0.35984,2.87874 v 2.87874 l 0.71969,6.83701 0.71968,7.19685 0.71969,6.83701 0.35984,6.837 0.71969,7.19685 0.71968,6.83701 0.71969,7.19685 0.35984,6.83701 0.35984,3.23858 0.35984,3.23859 v 1.07952 l 0.35985,0.71969 v 0.71968 0.71969 0.71968 l 0.35984,3.59843 0.71968,7.19685 0.35985,7.19685 0.71968,4.31811 0.35984,4.31811 v 0.35984"
     id="path381" />
  <path
     style="fill:#ff0000;stroke:#ff0000;stroke-width:1px;stroke-linecap:butt;stroke-linejoin:miter;stroke-opacity:1"
     d="m 465.82937,11.233761 0.0826,228.846579"
     id="path657" />
  <path
     style="fill:none;stroke:#ff0000;stroke-width:1px;stroke-linecap:butt;stroke-linejoin:miter;stroke-opacity:1"
     d="M 579.6125,19.57648 27.340992,19.452578"
     id="path1213" />
  <text
     xml:space="preserve"
     style="font-style:normal;font-weight:normal;font-size:13.3333px;line-height:1.25;font-family:sans-serif;fill:#ff0000;fill-opacity:1;stroke:none"
     x="415.97952"
     y="45.926262"
     id="text1269"><tspan
       sodipodi:role="line"
       id="tspan1267"
       x="415.97952"
       y="45.926262"
       style="font-style:normal;font-variant:normal;font-weight:normal;font-stretch:normal;font-size:13.3333px;font-family:Calibri;-inkscape-font-specification:Calibri;fill:#ff0000">MPP</tspan></text>
  <path
     style="fill:#ff0000;stroke:#ff0000;stroke-width:1.00157;stroke-linecap:butt;stroke-linejoin:miter;stroke-dasharray:none;stroke-opacity:1;marker-start:url(#TriangleStart)"
     d="m 459.79312,24.27523 c -0.41301,0.330405 -19.39124,12.833247 -19.39124,12.833247"
     id="path1325"
     sodipodi:nodetypes="cc" />
</svg>
